<?xml version="1.0" encoding="UTF-8"?>
<!DOCTYPE svg PUBLIC "-//W3C//DTD SVG 1.1//EN" "http://www.w3.org/Graphics/SVG/1.1/DTD/svg11.dtd">
<svg xmlns="http://www.w3.org/2000/svg" version="1.1" width="334px" height="100px" style="shape-rendering:geometricPrecision; text-rendering:geometricPrecision; image-rendering:optimizeQuality; fill-rule:evenodd; clip-rule:evenodd" xmlns:xlink="http://www.w3.org/1999/xlink">
<g><path style="opacity:1" fill="#f8f9fa" d="M 12.5,-0.5 C 16.8333,-0.5 21.1667,-0.5 25.5,-0.5C 31.7867,2.28917 36.2867,6.95583 39,13.5C 41.6873,6.98101 46.1873,2.31434 52.5,-0.5C 56.5,-0.5 60.5,-0.5 64.5,-0.5C 70.8127,2.31434 75.3127,6.98101 78,13.5C 78.5,33.4972 78.6666,53.4972 78.5,73.5C 73.9014,73.8 69.4014,73.4667 65,72.5C 64.8209,53.4565 64.3209,34.4565 63.5,15.5C 60.5842,12.1062 57.4175,11.7729 54,14.5C 52.5679,22.0542 52.0679,29.7208 52.5,37.5C 43.5,37.5 34.5,37.5 25.5,37.5C 25.6663,30.4921 25.4996,23.4921 25,16.5C 21.6675,11.6493 18.0009,11.3159 14,15.5C 12.5373,34.7654 12.0373,54.0987 12.5,73.5C 8.16667,73.5 3.83333,73.5 -0.5,73.5C -0.5,53.5 -0.5,33.5 -0.5,13.5C 1.74343,6.9222 6.07676,2.25553 12.5,-0.5 Z"/></g>
<g><path style="opacity:1" fill="#f7f7fa" d="M 238.5,17.5 C 248.055,16.2567 256.222,18.9233 263,25.5C 264.759,28.6076 265.592,31.941 265.5,35.5C 261.486,35.6655 257.486,35.4988 253.5,35C 250.402,27.5775 245.069,25.5775 237.5,29C 234.92,31.5444 234.92,34.0444 237.5,36.5C 244.448,38.8205 251.448,40.9872 258.5,43C 269.695,51.1832 270.362,60.1832 260.5,70C 247.818,76.6139 235.984,75.4472 225,66.5C 222.715,62.8131 221.548,58.8131 221.5,54.5C 225.555,54.1758 229.555,54.5091 233.5,55.5C 237.058,63.5265 243.058,66.0265 251.5,63C 254.978,60.2935 255.311,57.2935 252.5,54C 245.571,51.5162 238.571,49.1829 231.5,47C 223.605,42.1119 221.439,35.2785 225,26.5C 228.453,21.8618 232.953,18.8618 238.5,17.5 Z"/></g>
<g><path style="opacity:1" fill="#fdfefe" d="M 100.5,18.5 C 104.833,18.5 109.167,18.5 113.5,18.5C 113.5,25.5 113.5,32.5 113.5,39.5C 120.167,39.5 126.833,39.5 133.5,39.5C 133.5,32.5 133.5,25.5 133.5,18.5C 137.833,18.5 142.167,18.5 146.5,18.5C 146.5,36.5 146.5,54.5 146.5,72.5C 142.167,72.5 137.833,72.5 133.5,72.5C 133.5,64.8333 133.5,57.1667 133.5,49.5C 126.833,49.5 120.167,49.5 113.5,49.5C 113.5,57.1667 113.5,64.8333 113.5,72.5C 109.167,72.5 104.833,72.5 100.5,72.5C 100.5,54.5 100.5,36.5 100.5,18.5 Z"/></g>
<g><path style="opacity:1" fill="#f8f9fb" d="M 156.5,18.5 C 162.425,18.1918 168.259,18.5251 174,19.5C 178.197,31.092 182.197,42.7587 186,54.5C 189.533,42.7343 193.366,31.0676 197.5,19.5C 203.128,18.5046 208.794,18.1712 214.5,18.5C 214.5,36.5 214.5,54.5 214.5,72.5C 210.5,72.5 206.5,72.5 202.5,72.5C 202.667,61.495 202.5,50.495 202,39.5C 198.531,50.2414 194.864,60.9081 191,71.5C 187.545,72.7914 184.045,72.7914 180.5,71.5C 176.568,60.8714 172.735,50.2047 169,39.5C 168.5,50.495 168.333,61.495 168.5,72.5C 164.5,72.5 160.5,72.5 156.5,72.5C 156.5,54.5 156.5,36.5 156.5,18.5 Z"/></g>
<g><path style="opacity:1" fill="#f9fafb" d="M 292.5,18.5 C 296.846,18.3343 301.179,18.501 305.5,19C 312.26,36.4442 318.927,53.9442 325.5,71.5C 321.167,72.8333 316.833,72.8333 312.5,71.5C 311.091,68.2732 310.091,64.9399 309.5,61.5C 302.825,61.3337 296.158,61.5004 289.5,62C 288.167,65.3333 286.833,68.6667 285.5,72C 281.167,72.6667 276.833,72.6667 272.5,72C 279.86,54.4189 286.527,36.5856 292.5,18.5 Z M 298.5,34.5 C 301.291,39.6778 303.625,45.1778 305.5,51C 301.514,51.4988 297.514,51.6655 293.5,51.5C 295.365,45.9034 297.032,40.2368 298.5,34.5 Z"/></g>
<g><path style="opacity:1" fill="#f6f7f9" d="M 25.5,46.5 C 34.1731,46.3336 42.8397,46.5002 51.5,47C 52.4839,55.7489 52.8172,64.5822 52.5,73.5C 43.5,73.5 34.5,73.5 25.5,73.5C 25.5,64.5 25.5,55.5 25.5,46.5 Z"/></g>
<g><path style="opacity:1" fill="#eef0f3" d="M 148.5,66.5 C 150.5,66.5 152.5,66.5 154.5,66.5C 154.5,68.5 154.5,70.5 154.5,72.5C 152.5,72.5 150.5,72.5 148.5,72.5C 148.5,70.5 148.5,68.5 148.5,66.5 Z"/></g>
<g><path style="opacity:1" fill="#eeeff3" d="M 217.5,66.5 C 219.5,66.5 221.5,66.5 223.5,66.5C 223.5,68.5 223.5,70.5 223.5,72.5C 221.5,72.5 219.5,72.5 217.5,72.5C 217.5,70.5 217.5,68.5 217.5,66.5 Z"/></g>
<g><path style="opacity:1" fill="#eef0f3" d="M 265.5,66.5 C 267.5,66.5 269.5,66.5 271.5,66.5C 271.5,68.5 271.5,70.5 271.5,72.5C 269.5,72.5 267.5,72.5 265.5,72.5C 265.5,70.5 265.5,68.5 265.5,66.5 Z"/></g>
<g><path style="opacity:1" fill="#d9dce5" d="M 333.5,66.5 C 333.5,68.5 333.5,70.5 333.5,72.5C 331.5,72.5 329.5,72.5 327.5,72.5C 326.5,67.5 328.5,65.5 333.5,66.5 Z"/></g>
<g><path style="opacity:1" fill="#fefffe" d="M -0.5,81.5 C 25.8333,81.5 52.1667,81.5 78.5,81.5C 78.5,84.5 78.5,87.5 78.5,90.5C 52.1667,90.5 25.8333,90.5 -0.5,90.5C -0.5,87.5 -0.5,84.5 -0.5,81.5 Z"/></g>
<g><path style="opacity:1" fill="#cfd3e0" d="M -0.5,91.5 C 25.8333,91.5 52.1667,91.5 78.5,91.5C 78.5,92.8333 78.5,94.1667 78.5,95.5C 52.1667,95.5 25.8333,95.5 -0.5,95.5C -0.5,94.1667 -0.5,92.8333 -0.5,91.5 Z"/></g>
<g><path style="opacity:1" fill="#fefffe" d="M -0.5,96.5 C 25.8333,96.5 52.1667,96.5 78.5,96.5C 78.5,97.5 78.5,98.5 78.5,99.5C 52.1667,99.5 25.8333,99.5 -0.5,99.5C -0.5,98.5 -0.5,97.5 -0.5,96.5 Z"/></g>
</svg>
